<svg xmlns="http://www.w3.org/2000/svg" version="1.1" xmlns:xlink="http://www.w3.org/1999/xlink" xmlns:svgjs="http://svgjs.dev/svgjs" width="1500" height="1500" viewBox="0 0 1500 1500"><rect width="1500" height="1500" fill="#ffffff"></rect><g transform="matrix(0.6666666666666666,0,0,0.6666666666666666,249.39393939393938,570.6545726654472)"><svg viewBox="0 0 396 142" data-background-color="#0c1040" preserveAspectRatio="xMidYMid meet" height="537" width="1500" xmlns="http://www.w3.org/2000/svg" xmlns:xlink="http://www.w3.org/1999/xlink"><g id="tight-bounds" transform="matrix(1,0,0,1,0.2400000000000091,0.13701307683379582)"><svg viewBox="0 0 395.52 141.72597384633238" height="141.72597384633238" width="395.52"><g><svg viewBox="0 0 682.1437798834489 244.43135999999998" height="141.72597384633238" width="395.52"><g transform="matrix(1,0,0,1,286.62377988344895,60.4507101972237)"><svg viewBox="0 0 395.52 123.52993960555258" height="123.52993960555258" width="395.52"><g id="textblocktransform"><svg viewBox="0 0 395.52 123.52993960555258" height="123.52993960555258" width="395.52" id="textblock"><g><svg viewBox="0 0 395.52 71.48955401387512" height="71.48955401387512" width="395.52"><g transform="matrix(1,0,0,1,0,0)"><svg width="395.52" viewBox="3.86 -35.13 197.04999999999998 35.620000000000005" height="71.48955401387512" data-palette-color="#ffffff"><path d="M3.86 0L3.86-33.15 12.62-33.15 21-12.45 24.34-3.03 24.02-12.45 23.85-33.15 29.13-33.15 29.13 0 20.58 0 12.01-20.75 8.67-30.32 8.98-20.75 9.16 0 3.86 0ZM34.86-12.23L34.86-12.23Q34.86-15.75 35.72-18.29 36.57-20.83 38.11-22.46 39.65-24.1 41.78-24.87 43.92-25.63 46.48-25.63L46.48-25.63Q48.85-25.63 50.72-24.84 52.59-24.05 53.88-22.61 55.17-21.17 55.86-19.17 56.54-17.16 56.54-14.75L56.54-14.75Q56.54-13.92 56.47-13.21 56.39-12.5 56.3-11.99L56.3-11.99Q56.2-11.38 56.08-10.89L56.08-10.89 40.06-10.96Q40.09-8.79 40.52-7.36 40.96-5.93 41.83-5.1 42.7-4.27 44.02-3.94 45.33-3.61 47.14-3.61L47.14-3.61Q48.68-3.61 49.9-3.81 51.12-4 51.98-4.27L51.98-4.27Q52.95-4.57 53.73-4.96L53.73-4.96Q54.1-4.1 54.31-3.37 54.51-2.64 54.61-2.1L54.61-2.1Q54.71-1.46 54.76-0.98L54.76-0.98Q53.95-0.56 52.81-0.24L52.81-0.24Q51.83 0.02 50.41 0.26 49 0.49 47.14 0.49L47.14 0.49Q44.21 0.49 41.93-0.17 39.65-0.83 38.07-2.33 36.5-3.83 35.68-6.26 34.86-8.69 34.86-12.23ZM40.13-14.53L51.32-14.53 51.32-15.36Q51.32-16.89 50.94-18.08 50.56-19.26 49.9-20.07 49.24-20.87 48.34-21.29 47.43-21.7 46.38-21.7L46.38-21.7Q44.85-21.7 43.67-21.3 42.5-20.9 41.71-20.03 40.92-19.17 40.52-17.8 40.13-16.43 40.13-14.53L40.13-14.53ZM60.54-1.12L60.54-1.12Q60.54-1.68 60.64-2.34L60.64-2.34Q60.71-2.91 60.87-3.63 61.03-4.35 61.35-5.13L61.35-5.13Q62.42-4.71 63.59-4.39L63.59-4.39Q64.59-4.13 65.77-3.89 66.94-3.66 68.09-3.66L68.09-3.66Q69.11-3.66 69.99-3.74 70.87-3.81 71.52-4.14 72.16-4.47 72.53-5.14 72.9-5.81 72.9-7.01L72.9-7.01Q72.9-8.45 72-9.28 71.11-10.11 68.92-10.52L68.92-10.52Q66.65-10.96 65.1-11.69 63.54-12.43 62.58-13.39 61.62-14.36 61.19-15.55 60.76-16.75 60.76-18.12L60.76-18.12Q60.76-20.17 61.42-21.61 62.08-23.05 63.34-23.94 64.59-24.83 66.46-25.23 68.33-25.63 70.75-25.63L70.75-25.63Q72.43-25.63 73.74-25.4 75.04-25.17 75.92-24.9L75.92-24.9Q76.95-24.58 77.7-24.17L77.7-24.17Q77.63-23.63 77.44-23L77.44-23Q77.27-22.46 76.98-21.78 76.7-21.09 76.24-20.39L76.24-20.39Q75.58-20.78 74.73-21.07L74.73-21.07Q73.99-21.34 72.97-21.55 71.94-21.75 70.62-21.75L70.62-21.75Q69.6-21.75 68.73-21.66 67.87-21.56 67.24-21.22 66.62-20.87 66.28-20.18 65.94-19.48 65.94-18.29L65.94-18.29Q65.94-17.7 66.1-17.22 66.25-16.75 66.73-16.36 67.21-15.97 68.07-15.64 68.94-15.31 70.38-14.99L70.38-14.99Q72.63-14.5 74.13-13.87 75.63-13.23 76.52-12.33 77.41-11.43 77.79-10.22 78.17-9.01 78.17-7.35L78.17-7.35Q78.17-5.57 77.61-4.13 77.05-2.69 75.85-1.66 74.65-0.63 72.77-0.07 70.89 0.49 68.23 0.49L68.23 0.49Q66.52 0.49 65.12 0.24 63.72 0 62.69-0.32L62.69-0.32Q61.49-0.66 60.54-1.12ZM85.12-6.98L85.12-21.17 81.93-21.17Q81.9-21.44 81.88-21.75L81.88-21.75Q81.85-22.02 81.84-22.39 81.83-22.75 81.83-23.19L81.83-23.19Q81.83-23.63 81.85-24.01 81.88-24.39 81.93-24.95L81.93-24.95 85.12-24.95 85.12-28.83 87.93-32.01 90.1-32.01 90.1-24.95 97.01-24.95Q97.06-24.71 97.1-24.37 97.14-24.02 97.14-23.71L97.14-23.71Q97.14-23.14 97.03-22.68 96.92-22.22 96.79-21.88L96.79-21.88Q96.65-21.48 96.45-21.17L96.45-21.17 90.1-21.17 90.1-7.01Q90.1-5.22 90.7-4.42 91.3-3.61 92.62-3.61L92.62-3.61Q93.18-3.61 93.8-3.75 94.43-3.88 94.99-4.08L94.99-4.08Q95.62-4.3 96.28-4.57L96.28-4.57Q96.77-3.93 97.05-3.32 97.33-2.71 97.45-2.22L97.45-2.22Q97.6-1.66 97.62-1.17L97.62-1.17Q96.94-0.71 96.09-0.34L96.09-0.34Q95.33-0.02 94.28 0.23 93.23 0.49 91.86 0.49L91.86 0.49Q89.96 0.49 88.68 0.01 87.39-0.46 86.6-1.4 85.81-2.34 85.47-3.75 85.12-5.15 85.12-6.98L85.12-6.98ZM100.7-12.23L100.7-12.23Q100.7-15.75 101.55-18.29 102.41-20.83 103.95-22.46 105.48-24.1 107.62-24.87 109.76-25.63 112.32-25.63L112.32-25.63Q114.69-25.63 116.55-24.84 118.42-24.05 119.72-22.61 121.01-21.17 121.69-19.17 122.38-17.16 122.38-14.75L122.38-14.75Q122.38-13.92 122.3-13.21 122.23-12.5 122.13-11.99L122.13-11.99Q122.04-11.38 121.91-10.89L121.91-10.89 105.9-10.96Q105.92-8.79 106.36-7.36 106.8-5.93 107.67-5.1 108.53-4.27 109.85-3.94 111.17-3.61 112.98-3.61L112.98-3.61Q114.52-3.61 115.74-3.81 116.96-4 117.81-4.27L117.81-4.27Q118.79-4.57 119.57-4.96L119.57-4.96Q119.94-4.1 120.14-3.37 120.35-2.64 120.45-2.1L120.45-2.1Q120.55-1.46 120.6-0.98L120.6-0.98Q119.79-0.56 118.64-0.24L118.64-0.24Q117.67 0.02 116.25 0.26 114.83 0.49 112.98 0.49L112.98 0.49Q110.05 0.49 107.77-0.17 105.48-0.83 103.91-2.33 102.33-3.83 101.52-6.26 100.7-8.69 100.7-12.23ZM105.97-14.53L117.15-14.53 117.15-15.36Q117.15-16.89 116.77-18.08 116.4-19.26 115.74-20.07 115.08-20.87 114.17-21.29 113.27-21.7 112.22-21.7L112.22-21.7Q110.68-21.7 109.51-21.3 108.34-20.9 107.55-20.03 106.75-19.17 106.36-17.8 105.97-16.43 105.97-14.53L105.97-14.53ZM126.21-12.04L126.21-12.04Q126.21-15.53 127.18-18.09 128.16-20.65 129.83-22.34 131.51-24.02 133.7-24.84 135.9-25.66 138.37-25.66L138.37-25.66Q139.29-25.66 140.03-25.57 140.76-25.49 141.27-25.37L141.27-25.37Q141.88-25.24 142.35-25.07L142.35-25.07 142.35-35.13 147.55-35.13 147.55-4.03 149.69-1.54 149.69 0 144.81 0 143.13-1.93 142.3-1.93Q142.18-1.81 141.8-1.42 141.42-1.03 140.72-0.61 140.03-0.2 139.01 0.15 138 0.49 136.63 0.49L136.63 0.49Q134.83 0.49 132.97-0.24 131.12-0.98 129.61-2.51 128.11-4.05 127.16-6.41 126.21-8.76 126.21-12.04ZM131.68-12.04L131.68-12.04Q131.68-9.77 132.15-8.15 132.63-6.54 133.51-5.51 134.39-4.47 135.66-3.99 136.93-3.52 138.51-3.52L138.51-3.52Q139.12-3.52 139.81-3.71 140.49-3.91 141.05-4.17L141.05-4.17Q141.71-4.44 142.35-4.83L142.35-4.83 142.35-21.34Q142.03-21.53 141.41-21.73 140.78-21.92 139.68-21.92L139.68-21.92Q135.85-21.92 133.76-19.4 131.68-16.87 131.68-12.04ZM168.71 0L168.71-33.15 174.23-33.15 174.23 0 168.71 0ZM186.92 0L186.92-29.05Q185.09-29.03 183.61-29 182.13-28.98 181.08-28.93L181.08-28.93Q179.86-28.88 178.91-28.83L178.91-28.83Q178.86-29.13 178.84-29.42L178.84-29.42Q178.76-29.93 178.76-30.69L178.76-30.69Q178.76-31.13 178.83-31.75 178.89-32.37 179.06-33.15L179.06-33.15 200.79-33.15Q200.81-32.91 200.83-32.64L200.83-32.64Q200.86-32.42 200.88-32.14 200.91-31.86 200.91-31.59L200.91-31.59Q200.91-31.1 200.82-30.32 200.74-29.54 200.52-28.86L200.52-28.86Q200.32-28.88 199.5-28.92 198.69-28.96 197.54-28.98 196.39-29 195.05-29.03 193.71-29.05 192.44-29.05L192.44-29.05 192.44 0 186.92 0Z" opacity="1" transform="matrix(1,0,0,1,0,0)" fill="#000000" class="wordmark-text-0" data-fill-palette-color="primary" id="text-0"></path></svg></g></svg></g><g transform="matrix(1,0,0,1,0,88.3665219672547)"><svg viewBox="0 0 232.209792 35.16341763829787" height="35.16341763829787" width="232.209792"><g transform="matrix(1,0,0,1,0,0)"><svg width="232.209792" viewBox="4.15 -35.5 300.77000000000004 45.575527426160335" height="35.16341763829787" data-palette-color="#ffffff"><path d="M21.55-34.5Q21.55-35 22.05-35L22.05-35 24.6-35Q25.1-35 25.1-34.5L25.1-34.5 25.1-0.5Q25.1 0 24.6 0L24.6 0 21.9 0Q21.45 0 21.3-0.35L21.3-0.35 7.9-27.1Q7.8-27.2 7.73-27.2 7.65-27.2 7.65-27.05L7.65-27.05 7.7-0.5Q7.7 0 7.2 0L7.2 0 4.65 0Q4.15 0 4.15-0.5L4.15-0.5 4.15-34.5Q4.15-35 4.65-35L4.65-35 7.35-35Q7.8-35 7.95-34.65L7.95-34.65 21.35-7.8Q21.45-7.7 21.53-7.7 21.6-7.7 21.6-7.85L21.6-7.85 21.55-34.5ZM41.3-2.7Q43.2-2.7 44.57-3.68 45.95-4.65 46.55-6.3L46.55-6.3Q46.7-6.75 47.15-6.65L47.15-6.65 49.45-6.2Q49.7-6.15 49.77-5.98 49.85-5.8 49.8-5.6L49.8-5.6Q48.95-2.8 46.7-1.2 44.45 0.4 41.25 0.4L41.25 0.4Q37.6 0.4 35.3-1.53 33-3.45 32.45-6.75L32.45-6.75Q32.25-8 32.2-9.7 32.15-11.4 32.15-12.53 32.15-13.65 32.15-14.1L32.15-14.1Q32.15-16.65 32.35-18.25L32.35-18.25Q32.75-21.6 35.12-23.65 37.5-25.7 41.1-25.7L41.1-25.7Q44.95-25.7 47.35-23.5 49.75-21.3 50.05-17.7L50.05-17.7Q50.2-16.05 50.2-11.65L50.2-11.65Q50.2-11.15 49.7-11.15L49.7-11.15 35.9-11.15Q35.7-11.15 35.7-10.95L35.7-10.95Q35.7-9.4 35.8-7.5L35.8-7.5Q36.05-5.35 37.52-4.03 39-2.7 41.3-2.7L41.3-2.7ZM41.15-22.6Q38.9-22.6 37.47-21.28 36.05-19.95 35.8-17.8L35.8-17.8Q35.7-15.7 35.7-14.3L35.7-14.3Q35.7-14.1 35.9-14.1L35.9-14.1 46.45-14.1Q46.65-14.1 46.65-14.3L46.65-14.3Q46.65-15.75 46.45-17.75L46.45-17.75Q46.2-19.9 44.77-21.25 43.35-22.6 41.15-22.6L41.15-22.6ZM63.4 0.25Q59.55 0.25 57.2-1.6 54.85-3.45 54.85-6.35L54.85-6.35 54.85-6.8Q54.85-7.3 55.35-7.3L55.35-7.3 57.8-7.3Q58.3-7.3 58.3-6.8L58.3-6.8 58.3-6.45Q58.3-4.85 59.72-3.68 61.15-2.5 63.4-2.5L63.4-2.5Q65.6-2.5 66.95-3.65 68.3-4.8 68.3-6.55L68.3-6.55Q68.3-7.8 67.55-8.65 66.8-9.5 65.7-10 64.6-10.5 62.65-11.15L62.65-11.15Q60.3-11.95 58.75-12.75 57.2-13.55 56.12-14.98 55.05-16.4 55.05-18.6L55.05-18.6Q55.05-21.8 57.3-23.68 59.55-25.55 63.25-25.55L63.25-25.55Q67.05-25.55 69.32-23.6 71.6-21.65 71.6-18.6L71.6-18.6 71.6-18.5Q71.6-18 71.1-18L71.1-18 68.8-18Q68.3-18 68.3-18.5L68.3-18.5 68.3-18.7Q68.3-20.4 66.92-21.53 65.55-22.65 63.25-22.65L63.25-22.65Q61.1-22.65 59.77-21.58 58.45-20.5 58.45-18.8L58.45-18.8Q58.45-17.05 59.77-16.15 61.1-15.25 63.95-14.25L63.95-14.25Q66.4-13.45 68-12.65 69.6-11.85 70.72-10.43 71.85-9 71.85-6.75L71.85-6.75Q71.85-3.55 69.55-1.65 67.25 0.25 63.4 0.25L63.4 0.25ZM87.49-23Q87.49-22.5 86.99-22.5L86.99-22.5 82.24-22.5Q82.04-22.5 82.04-22.3L82.04-22.3 82.04-7.3Q82.04-4.95 82.97-4.03 83.89-3.1 85.94-3.1L85.94-3.1 86.79-3.1Q87.29-3.1 87.29-2.6L87.29-2.6 87.29-0.5Q87.29 0 86.79 0L86.79 0 85.24 0.05Q81.99 0.05 80.29-1.28 78.59-2.6 78.59-6.2L78.59-6.2 78.59-22.3Q78.59-22.5 78.39-22.5L78.39-22.5 75.89-22.5Q75.39-22.5 75.39-23L75.39-23 75.39-24.8Q75.39-25.3 75.89-25.3L75.89-25.3 78.39-25.3Q78.59-25.3 78.59-25.5L78.59-25.5 78.59-31.2Q78.59-31.7 79.09-31.7L79.09-31.7 81.54-31.7Q82.04-31.7 82.04-31.2L82.04-31.2 82.04-25.5Q82.04-25.3 82.24-25.3L82.24-25.3 86.99-25.3Q87.49-25.3 87.49-24.8L87.49-24.8 87.49-23ZM95.39-29.9Q94.14-29.9 93.37-30.7 92.59-31.5 92.59-32.7L92.59-32.7Q92.59-33.95 93.37-34.73 94.14-35.5 95.39-35.5L95.39-35.5Q96.59-35.5 97.39-34.73 98.19-33.95 98.19-32.7L98.19-32.7Q98.19-31.5 97.39-30.7 96.59-29.9 95.39-29.9L95.39-29.9ZM94.04 0Q93.54 0 93.54-0.5L93.54-0.5 93.54-24.8Q93.54-25.3 94.04-25.3L94.04-25.3 96.59-25.3Q97.09-25.3 97.09-24.8L97.09-24.8 97.09-0.5Q97.09 0 96.59 0L96.59 0 94.04 0ZM114.49-25.65Q117.99-25.65 120.01-23.43 122.04-21.2 122.04-17.35L122.04-17.35 122.04-0.5Q122.04 0 121.54 0L121.54 0 118.99 0Q118.49 0 118.49-0.5L118.49-0.5 118.49-16.85Q118.49-19.45 117.14-21 115.79-22.55 113.44-22.55L113.44-22.55Q111.09-22.55 109.66-20.98 108.24-19.4 108.24-16.75L108.24-16.75 108.24-0.5Q108.24 0 107.74 0L107.74 0 105.19 0Q104.69 0 104.69-0.5L104.69-0.5 104.69-24.8Q104.69-25.3 105.19-25.3L105.19-25.3 107.74-25.3Q108.24-25.3 108.24-24.8L108.24-24.8 108.24-22.85Q108.24-22.75 108.31-22.7 108.39-22.65 108.49-22.75L108.49-22.75Q110.44-25.65 114.49-25.65L114.49-25.65ZM142.39-24.8Q142.39-25.3 142.89-25.3L142.89-25.3 145.44-25.3Q145.94-25.3 145.94-24.8L145.94-24.8 145.94-0.7Q145.94 10.6 133.59 10.05L133.59 10.05Q133.09 10 133.09 9.5L133.09 9.5 133.14 7.25Q133.14 7 133.29 6.88 133.44 6.75 133.64 6.8L133.64 6.8Q138.34 6.95 140.36 5.08 142.39 3.2 142.39-0.9L142.39-0.9 142.39-2.55Q142.39-2.65 142.31-2.7 142.24-2.75 142.14-2.65L142.14-2.65Q140.19 0.15 136.34 0.15L136.34 0.15Q133.14 0.15 130.99-1.78 128.84-3.7 128.34-7L128.34-7Q128.04-9.2 128.04-12.65L128.04-12.65Q128.04-16.4 128.39-18.55L128.39-18.55Q128.79-21.8 130.91-23.75 133.04-25.7 136.24-25.7L136.24-25.7Q140.14-25.7 142.14-22.95L142.14-22.95Q142.24-22.85 142.31-22.88 142.39-22.9 142.39-23L142.39-23 142.39-24.8ZM142.24-7.7Q142.39-9.65 142.39-12.7L142.39-12.7Q142.39-15.7 142.24-17.8L142.24-17.8Q142.04-19.9 140.66-21.25 139.29-22.6 137.14-22.6L137.14-22.6Q134.99-22.6 133.56-21.25 132.14-19.9 131.84-17.8L131.84-17.8Q131.64-16 131.64-12.7L131.64-12.7Q131.64-10.2 131.84-7.7L131.84-7.7Q132.09-5.6 133.54-4.25 134.99-2.9 137.14-2.9L137.14-2.9Q139.29-2.9 140.66-4.25 142.04-5.6 142.24-7.7L142.24-7.7ZM163.63 0Q163.13 0 163.13-0.5L163.13-0.5 163.13-34.5Q163.13-35 163.63-35L163.63-35 173.38-35Q177.83-35 180.41-32.45 182.98-29.9 182.98-25.5L182.98-25.5 182.98-9.5Q182.98-5.1 180.41-2.55 177.83 0 173.38 0L173.38 0 163.63 0ZM166.68-3.3Q166.68-3.1 166.88-3.1L166.88-3.1 173.43-3.1Q176.18-3.15 177.78-4.93 179.38-6.7 179.43-9.8L179.43-9.8 179.43-25.2Q179.43-28.3 177.83-30.1 176.23-31.9 173.43-31.9L173.43-31.9 166.88-31.9Q166.68-31.9 166.68-31.7L166.68-31.7 166.68-3.3ZM198.98-25.55Q200.48-25.55 201.53-24.95L201.53-24.95Q201.88-24.8 201.78-24.35L201.78-24.35 201.18-21.75Q201.13-21.25 200.58-21.45L200.58-21.45Q199.78-21.8 198.83-21.8L198.83-21.8 198.23-21.75Q196.03-21.7 194.58-19.85 193.13-18 193.13-15.35L193.13-15.35 193.13-0.5Q193.13 0 192.63 0L192.63 0 190.08 0Q189.58 0 189.58-0.5L189.58-0.5 189.58-24.8Q189.58-25.3 190.08-25.3L190.08-25.3 192.63-25.3Q193.13-25.3 193.13-24.8L193.13-24.8 193.13-21.55Q193.13-21.4 193.2-21.4 193.28-21.4 193.33-21.5L193.33-21.5Q194.18-23.4 195.6-24.48 197.03-25.55 198.98-25.55L198.98-25.55ZM214.33-2.7Q216.22-2.7 217.6-3.68 218.97-4.65 219.58-6.3L219.58-6.3Q219.72-6.75 220.18-6.65L220.18-6.65 222.48-6.2Q222.73-6.15 222.8-5.98 222.88-5.8 222.83-5.6L222.83-5.6Q221.98-2.8 219.72-1.2 217.47 0.4 214.28 0.4L214.28 0.4Q210.63 0.4 208.33-1.53 206.03-3.45 205.47-6.75L205.47-6.75Q205.28-8 205.22-9.7 205.18-11.4 205.18-12.53 205.18-13.65 205.18-14.1L205.18-14.1Q205.18-16.65 205.38-18.25L205.38-18.25Q205.78-21.6 208.15-23.65 210.53-25.7 214.13-25.7L214.13-25.7Q217.97-25.7 220.38-23.5 222.78-21.3 223.08-17.7L223.08-17.7Q223.23-16.05 223.23-11.65L223.23-11.65Q223.23-11.15 222.73-11.15L222.73-11.15 208.93-11.15Q208.72-11.15 208.72-10.95L208.72-10.95Q208.72-9.4 208.83-7.5L208.83-7.5Q209.08-5.35 210.55-4.03 212.03-2.7 214.33-2.7L214.33-2.7ZM214.18-22.6Q211.93-22.6 210.5-21.28 209.08-19.95 208.83-17.8L208.83-17.8Q208.72-15.7 208.72-14.3L208.72-14.3Q208.72-14.1 208.93-14.1L208.93-14.1 219.47-14.1Q219.68-14.1 219.68-14.3L219.68-14.3Q219.68-15.75 219.47-17.75L219.47-17.75Q219.22-19.9 217.8-21.25 216.38-22.6 214.18-22.6L214.18-22.6ZM237.17-25.7Q241.17-25.7 243.45-23.4 245.72-21.1 245.72-17.3L245.72-17.3 245.72-0.5Q245.72 0 245.22 0L245.22 0 242.67 0Q242.17 0 242.17-0.5L242.17-0.5 242.17-2.3Q242.17-2.4 242.1-2.45 242.02-2.5 241.92-2.4L241.92-2.4Q240.82-1 239.12-0.3 237.42 0.4 235.32 0.4L235.32 0.4Q232.17 0.4 229.95-1.3 227.72-3 227.72-6.85L227.72-6.85Q227.72-10.85 230.3-12.93 232.87-15 237.32-15L237.32-15 241.97-15Q242.17-15 242.17-15.2L242.17-15.2 242.17-17.1Q242.17-19.65 240.9-21.13 239.62-22.6 237.12-22.6L237.12-22.6Q235.17-22.6 233.87-21.63 232.57-20.65 232.32-19.05L232.32-19.05Q232.27-18.6 231.77-18.6L231.77-18.6 229.02-18.75Q228.77-18.75 228.65-18.9 228.52-19.05 228.57-19.25L228.57-19.25Q228.92-22.15 231.3-23.93 233.67-25.7 237.17-25.7L237.17-25.7ZM236.02-2.7Q238.52-2.7 240.35-4.08 242.17-5.45 242.17-7.9L242.17-7.9 242.17-11.95Q242.17-12.15 241.97-12.15L241.97-12.15 237.57-12.15Q234.72-12.15 233.02-10.83 231.32-9.5 231.32-7.05L231.32-7.05Q231.32-4.85 232.62-3.78 233.92-2.7 236.02-2.7L236.02-2.7ZM275.12-25.65Q278.47-25.65 280.4-23.43 282.32-21.2 282.32-17.3L282.32-17.3 282.32-0.5Q282.32 0 281.82 0L281.82 0 279.32 0Q278.82 0 278.82-0.5L278.82-0.5 278.82-16.8Q278.82-19.45 277.5-21 276.17-22.55 274.02-22.55L274.02-22.55Q271.77-22.55 270.4-21.03 269.02-19.5 269.02-16.9L269.02-16.9 269.02-0.5Q269.02 0 268.52 0L268.52 0 265.97 0Q265.47 0 265.47-0.5L265.47-0.5 265.47-16.8Q265.47-19.45 264.15-21 262.82-22.55 260.67-22.55L260.67-22.55Q258.42-22.55 257.07-21.03 255.72-19.5 255.72-16.9L255.72-16.9 255.72-0.5Q255.72 0 255.22 0L255.22 0 252.67 0Q252.17 0 252.17-0.5L252.17-0.5 252.17-24.8Q252.17-25.3 252.67-25.3L252.67-25.3 255.22-25.3Q255.72-25.3 255.72-24.8L255.72-24.8 255.72-23.05Q255.72-22.95 255.8-22.93 255.87-22.9 255.97-23L255.97-23Q256.97-24.35 258.52-25 260.07-25.65 261.82-25.65L261.82-25.65Q264.02-25.65 265.67-24.65 267.32-23.65 268.17-21.85L268.17-21.85Q268.27-21.6 268.42-21.85L268.42-21.85Q269.42-23.8 271.19-24.73 272.97-25.65 275.12-25.65L275.12-25.65ZM296.47 0.25Q292.62 0.25 290.27-1.6 287.92-3.45 287.92-6.35L287.92-6.35 287.92-6.8Q287.92-7.3 288.42-7.3L288.42-7.3 290.87-7.3Q291.37-7.3 291.37-6.8L291.37-6.8 291.37-6.45Q291.37-4.85 292.79-3.68 294.22-2.5 296.47-2.5L296.47-2.5Q298.67-2.5 300.02-3.65 301.37-4.8 301.37-6.55L301.37-6.55Q301.37-7.8 300.62-8.65 299.87-9.5 298.77-10 297.67-10.5 295.72-11.15L295.72-11.15Q293.37-11.95 291.82-12.75 290.27-13.55 289.19-14.98 288.12-16.4 288.12-18.6L288.12-18.6Q288.12-21.8 290.37-23.68 292.62-25.55 296.32-25.55L296.32-25.55Q300.12-25.55 302.39-23.6 304.67-21.65 304.67-18.6L304.67-18.6 304.67-18.5Q304.67-18 304.17-18L304.17-18 301.87-18Q301.37-18 301.37-18.5L301.37-18.5 301.37-18.7Q301.37-20.4 299.99-21.53 298.62-22.65 296.32-22.65L296.32-22.65Q294.17-22.65 292.84-21.58 291.52-20.5 291.52-18.8L291.52-18.8Q291.52-17.05 292.84-16.15 294.17-15.25 297.02-14.25L297.02-14.25Q299.47-13.45 301.07-12.65 302.67-11.85 303.79-10.43 304.92-9 304.92-6.75L304.92-6.75Q304.92-3.55 302.62-1.65 300.32 0.25 296.47 0.25L296.47 0.25Z" opacity="1" transform="matrix(1,0,0,1,0,0)" fill="#000000" class="slogan-text-1" data-fill-palette-color="secondary" id="text-1"></path></svg></g></svg></g></svg></g></svg></g><g><svg viewBox="0 0 244.43135999999998 244.43135999999998" height="244.43135999999998" width="244.43135999999998"><g><svg viewBox="0 0 244.43135999999998 244.43135999999998" height="244.43135999999998" width="244.43135999999998"><g transform="matrix(1,0,0,1,64.60265593644992,64.60265593644992)"><svg viewBox="0 0 115.22604812710014 115.22604812710014" height="115.22604812710014" width="115.22604812710014"><g><svg xmlns="http://www.w3.org/2000/svg" xmlns:xlink="http://www.w3.org/1999/xlink" version="1.1" x="0" y="0" viewBox="5 5 90 90" enable-background="new 0 0 100 100" xml:space="preserve" height="115.22604812710014" width="115.22604812710014" class="icon-dxe-0" data-fill-palette-color="accent" id="dxe-0"><g fill="#ffffff" data-fill-palette-color="accent"><polygon fill="none" points="9.854,92 46.88,92 28.355,54.998  "></polygon><polygon fill="none" points="50,11.708 30.031,51.646 50.234,92 90.146,92  "></polygon><path fill="#000000" d="M50 5L5 95H95zM50.234 92L30.031 51.646 50 11.708 90.146 92z" data-fill-palette-color="accent"></path></g></svg></g></svg></g><g id="text-0"><path d="M34.151 98.65l-33.297-13.309 3.518-8.802 24.15-0.101 10.817 0.424-9.599-3.469-20.859-8.133 2.118-5.3 33.297 13.31-3.429 8.578-24.288 0.283-10.952-0.489 9.738 3.526 20.912 8.164z" fill="#000000" data-fill-palette-color="accent"></path><path d="M40.441 57.895v0c-1.815-1.768-3.165-3.512-4.048-5.231-0.883-1.719-1.359-3.387-1.428-5.003-0.073-1.621 0.228-3.176 0.904-4.665 0.68-1.494 1.664-2.902 2.952-4.224v0c1.19-1.221 2.462-2.115 3.816-2.681 1.35-0.562 2.723-0.816 4.118-0.764 1.391 0.057 2.776 0.413 4.157 1.066 1.38 0.653 2.695 1.589 3.945 2.807v0c0.426 0.415 0.805 0.822 1.136 1.219 0.327 0.393 0.596 0.744 0.809 1.054v0c0.269 0.356 0.501 0.689 0.694 0.998v0l-12.144 12.352c1.13 1.082 2.176 1.868 3.137 2.357 0.957 0.493 1.868 0.727 2.733 0.701 0.865-0.035 1.715-0.309 2.55-0.82 0.83-0.517 1.7-1.242 2.61-2.177v0c0.775-0.795 1.419-1.558 1.935-2.288 0.511-0.725 0.911-1.376 1.201-1.952v0c0.346-0.652 0.615-1.278 0.806-1.876v0c0.623 0.242 1.177 0.493 1.662 0.751 0.481 0.263 0.886 0.504 1.216 0.722v0c0.372 0.269 0.7 0.513 0.981 0.732v0c-0.195 0.622-0.498 1.312-0.909 2.069v0c-0.351 0.638-0.824 1.382-1.418 2.231-0.594 0.85-1.358 1.753-2.291 2.712v0c-1.474 1.514-2.956 2.694-4.443 3.541-1.493 0.842-3.021 1.295-4.586 1.358-1.569 0.058-3.187-0.313-4.852-1.114-1.666-0.801-3.413-2.093-5.243-3.875zM42.634 52.079l8.441-8.666-0.64-0.623c-0.795-0.775-1.595-1.362-2.399-1.763-0.795-0.401-1.566-0.634-2.315-0.7-0.753-0.061-1.463 0.036-2.131 0.291-0.668 0.255-1.268 0.655-1.8 1.201v0c-0.77 0.79-1.346 1.592-1.727 2.406-0.382 0.804-0.548 1.632-0.5 2.482 0.049 0.841 0.33 1.707 0.843 2.599 0.504 0.892 1.246 1.816 2.228 2.773z" fill="#000000" data-fill-palette-color="accent"></path><path d="M72.105 45.469v0c-0.191-0.361-0.365-0.768-0.522-1.222v0c-0.14-0.38-0.282-0.827-0.425-1.34-0.143-0.514-0.246-1.073-0.308-1.676v0c0.826-0.097 1.668-0.243 2.525-0.439v0c0.723-0.163 1.499-0.369 2.328-0.619 0.823-0.246 1.601-0.563 2.334-0.95v0c0.656-0.347 1.249-0.691 1.78-1.033 0.537-0.344 0.957-0.729 1.261-1.155 0.301-0.432 0.455-0.921 0.46-1.469 0.008-0.557-0.189-1.216-0.592-1.978v0c-0.485-0.916-1.15-1.487-1.996-1.713-0.855-0.229-2.05-0.107-3.585 0.364v0c-1.595 0.488-3.013 0.761-4.253 0.82-1.234 0.055-2.321-0.062-3.261-0.352-0.94-0.29-1.747-0.744-2.423-1.362-0.675-0.619-1.244-1.365-1.707-2.24v0c-0.691-1.306-1.069-2.529-1.134-3.667-0.065-1.138 0.153-2.207 0.654-3.205 0.498-0.99 1.277-1.927 2.336-2.813 1.051-0.889 2.347-1.741 3.89-2.557v0c1.076-0.569 2.067-0.999 2.972-1.288 0.915-0.287 1.697-0.496 2.346-0.628v0c0.766-0.14 1.456-0.207 2.073-0.2v0c0.134 0.368 0.247 0.789 0.338 1.262v0c0.075 0.399 0.138 0.861 0.189 1.386 0.048 0.534 0.045 1.107-0.01 1.719v0c-0.554-0.032-1.152 0.004-1.792 0.108v0c-0.558 0.076-1.198 0.217-1.92 0.426-0.725 0.217-1.507 0.547-2.346 0.991v0c-0.656 0.347-1.242 0.698-1.757 1.054-0.524 0.353-0.927 0.744-1.208 1.172-0.28 0.428-0.413 0.922-0.396 1.481 0.016 0.559 0.225 1.22 0.628 1.982v0c0.197 0.372 0.427 0.686 0.69 0.94 0.266 0.245 0.615 0.412 1.048 0.501 0.433 0.089 0.983 0.093 1.652 0.012 0.659-0.084 1.5-0.268 2.522-0.552v0c1.602-0.446 2.99-0.719 4.163-0.817 1.17-0.105 2.191-0.02 3.062 0.253 0.874 0.279 1.635 0.739 2.284 1.379 0.643 0.643 1.246 1.497 1.808 2.561v0c0.6 1.135 0.965 2.254 1.095 3.358 0.124 1.107-0.022 2.19-0.437 3.249-0.415 1.059-1.126 2.082-2.133 3.069-1.009 0.995-2.362 1.942-4.058 2.839v0c-1.094 0.578-2.129 1.024-3.106 1.336-0.974 0.318-1.842 0.551-2.604 0.697v0c-0.878 0.185-1.7 0.29-2.465 0.316z" fill="#000000" data-fill-palette-color="accent"></path><path d="M98.667 27.603l-2.989-15.053-3.395 0.674c-0.051-0.188-0.108-0.391-0.172-0.61v0c-0.057-0.186-0.115-0.407-0.172-0.661-0.059-0.261-0.119-0.546-0.18-0.854v0c-0.063-0.315-0.113-0.605-0.152-0.87-0.034-0.273-0.074-0.613-0.121-1.019v0l3.394-0.674-0.816-4.112 2.311-3.967 2.302-0.457 1.487 7.487 7.329-1.456c0.075 0.169 0.148 0.369 0.221 0.601 0.074 0.237 0.134 0.468 0.179 0.69v0c0.079 0.4 0.112 0.772 0.098 1.116-0.014 0.344-0.039 0.645-0.076 0.905v0c-0.05 0.296-0.122 0.57-0.215 0.82v0l-6.739 1.338 2.983 15.023c0.251 1.266 0.646 2.138 1.185 2.618 0.533 0.487 1.265 0.638 2.196 0.453v0c0.4-0.079 0.811-0.209 1.232-0.388 0.42-0.186 0.816-0.387 1.189-0.604v0c0.416-0.239 0.838-0.5 1.266-0.783v0c0.436 0.377 0.796 0.762 1.079 1.156 0.289 0.393 0.51 0.751 0.663 1.075v0c0.184 0.379 0.318 0.741 0.4 1.086v0c-0.42 0.424-0.907 0.824-1.459 1.2v0c-0.487 0.329-1.083 0.658-1.788 0.989-0.711 0.332-1.549 0.594-2.513 0.786v0c-1.351 0.268-2.513 0.322-3.486 0.16-0.972-0.155-1.805-0.507-2.501-1.057-0.69-0.558-1.255-1.309-1.694-2.251-0.441-0.949-0.789-2.069-1.046-3.361z" fill="#000000" data-fill-palette-color="accent"></path><path d="M121.362 19.173v0c0.232-2.524 0.737-4.67 1.518-6.439 0.78-1.768 1.776-3.188 2.989-4.258 1.214-1.077 2.611-1.822 4.194-2.234 1.589-0.412 3.302-0.533 5.14-0.364v0c1.698 0.156 3.193 0.582 4.486 1.277 1.286 0.695 2.348 1.602 3.185 2.72 0.831 1.117 1.427 2.417 1.788 3.901 0.361 1.484 0.461 3.094 0.302 4.832v0c-0.054 0.593-0.132 1.143-0.232 1.651-0.1 0.501-0.203 0.932-0.31 1.291v0c-0.107 0.433-0.22 0.823-0.339 1.168v0l-17.243-1.663c-0.13 1.559-0.082 2.867 0.144 3.921 0.219 1.054 0.61 1.909 1.175 2.566 0.572 0.65 1.319 1.138 2.243 1.465 0.924 0.32 2.036 0.539 3.334 0.658v0c1.105 0.101 2.104 0.123 2.995 0.063 0.885-0.06 1.643-0.158 2.274-0.295v0c0.725-0.142 1.38-0.327 1.964-0.555v0c0.203 0.636 0.358 1.225 0.463 1.765 0.098 0.539 0.166 1.006 0.204 1.399v0c0.025 0.459 0.041 0.867 0.049 1.223v0c-0.606 0.24-1.333 0.438-2.18 0.596v0c-0.717 0.129-1.592 0.23-2.626 0.303-1.034 0.073-2.217 0.048-3.549-0.074v0c-2.104-0.193-3.954-0.601-5.549-1.224-1.594-0.63-2.908-1.533-3.941-2.709-1.033-1.183-1.763-2.673-2.189-4.471-0.426-1.798-0.522-3.969-0.289-6.513zM127.263 17.216l12.046 1.105 0.082-0.889c0.101-1.105 0.055-2.097-0.14-2.974-0.189-0.87-0.493-1.617-0.913-2.239-0.426-0.623-0.949-1.114-1.567-1.474-0.618-0.359-1.307-0.573-2.066-0.642v0c-1.099-0.101-2.084-0.043-2.957 0.171-0.865 0.209-1.613 0.601-2.244 1.175-0.623 0.567-1.119 1.331-1.489 2.29-0.376 0.953-0.627 2.111-0.752 3.477z" fill="#000000" data-fill-palette-color="accent"></path><path d="M155.378 25.079v0c1.06-2.287 2.297-4.12 3.711-5.499 1.419-1.376 2.931-2.363 4.534-2.961 1.604-0.598 3.248-0.83 4.934-0.698 1.685 0.133 3.335 0.573 4.949 1.321v0c0.607 0.281 1.137 0.56 1.591 0.838 0.454 0.277 0.829 0.532 1.126 0.765v0c0.361 0.271 0.668 0.531 0.921 0.781v0l4.577-9.874 5.106 2.367-14.155 30.53 0.98 3.418-0.7 1.511-4.796-2.224-0.769-2.656-0.819-0.38c-0.115 0.042-0.357 0.133-0.724 0.273-0.367 0.139-0.841 0.24-1.422 0.302-0.582 0.062-1.255 0.052-2.02-0.03-0.765-0.082-1.597-0.331-2.495-0.748v0c-1.183-0.548-2.27-1.344-3.261-2.385-0.991-1.042-1.745-2.294-2.261-3.757-0.516-1.463-0.726-3.108-0.63-4.936 0.09-1.831 0.631-3.817 1.623-5.958zM160.747 27.568v0c-0.689 1.486-1.124 2.829-1.304 4.028-0.177 1.193-0.135 2.263 0.127 3.21 0.261 0.947 0.734 1.77 1.419 2.471 0.688 0.695 1.55 1.283 2.588 1.764v0c0.4 0.186 0.855 0.319 1.362 0.399 0.502 0.078 0.979 0.115 1.43 0.111v0c0.512 0.024 1.034 0.004 1.565-0.06v0l7.51-16.198c-0.147-0.223-0.394-0.492-0.742-0.808-0.347-0.316-0.882-0.641-1.604-0.976v0c-2.506-1.162-4.823-1.234-6.954-0.217-2.133 1.023-3.932 3.115-5.397 6.276z" fill="#000000" data-fill-palette-color="accent"></path><path d="M193.629 67.661l28.095-22.282 3.709 4.676-28.095 22.282z" fill="#000000" data-fill-palette-color="accent"></path><path d="M204.712 87.741l29.204-11.605c-0.505-1.217-0.961-2.32-1.369-3.309-0.411-0.981-0.772-1.816-1.082-2.506v0c-0.357-0.808-0.68-1.521-0.969-2.141v0c0.184-0.116 0.373-0.22 0.567-0.311v0c0.322-0.186 0.738-0.38 1.247-0.582v0c0.292-0.116 0.654-0.238 1.085-0.367 0.434-0.122 0.934-0.231 1.5-0.326v0l8.682 21.849c-0.157 0.077-0.321 0.16-0.494 0.251v0c-0.144 0.072-0.306 0.154-0.485 0.246-0.179 0.093-0.359 0.175-0.538 0.247v0c-0.329 0.131-0.766 0.272-1.311 0.423-0.547 0.145-1.078 0.238-1.595 0.278v0c-0.033-0.138-0.147-0.488-0.342-1.051-0.192-0.557-0.436-1.223-0.729-1.998-0.285-0.772-0.6-1.611-0.947-2.517-0.339-0.908-0.678-1.788-1.016-2.64v0l-29.204 11.605z" fill="#000000" data-fill-palette-color="accent"></path><path d="M8.508 161.798l35.179-14.382 3.799 9.294-18.331 17.875-8.549 7.634 9.859-4.431 21.895-9.156 2.288 5.598-35.179 14.381-3.708-9.071 18.307-18.092 8.694-7.705-10.007 4.492-21.951 9.18z" fill="#000000" data-fill-palette-color="accent"></path><path d="M40.465 192.759v0c1.904-1.898 3.772-3.301 5.603-4.211 1.836-0.905 3.612-1.382 5.329-1.431 1.716-0.049 3.359 0.296 4.927 1.037 1.569 0.74 3.044 1.804 4.428 3.191v0c1.279 1.284 2.206 2.644 2.78 4.083 0.574 1.438 0.823 2.895 0.745 4.371-0.083 1.48-0.482 2.945-1.199 4.395-0.716 1.45-1.728 2.827-3.035 4.13v0c-0.45 0.448-0.886 0.845-1.307 1.189-0.417 0.34-0.791 0.623-1.122 0.849v0c-0.388 0.274-0.748 0.509-1.079 0.708v0l-12.894-13.065c-1.165 1.19-2.016 2.288-2.552 3.294-0.536 1.006-0.795 1.968-0.778 2.886 0.017 0.917 0.295 1.821 0.833 2.71 0.533 0.895 1.285 1.83 2.257 2.806v0c0.831 0.834 1.629 1.53 2.394 2.089 0.765 0.55 1.45 0.986 2.055 1.308v0c0.685 0.365 1.344 0.657 1.977 0.876v0c-0.266 0.652-0.541 1.233-0.825 1.743-0.285 0.51-0.545 0.935-0.783 1.276v0c-0.294 0.397-0.557 0.739-0.789 1.027v0c-0.662-0.209-1.387-0.539-2.175-0.99v0c-0.676-0.384-1.457-0.898-2.345-1.543-0.893-0.64-1.839-1.462-2.84-2.466v0c-1.581-1.587-2.806-3.175-3.674-4.765-0.877-1.59-1.335-3.215-1.375-4.875-0.035-1.664 0.384-3.375 1.257-5.133 0.873-1.748 2.268-3.578 4.187-5.489zM46.596 195.187l9.042 9.073 0.675-0.673c0.834-0.831 1.469-1.667 1.905-2.508 0.436-0.841 0.695-1.656 0.777-2.445 0.082-0.799-0.009-1.553-0.273-2.263-0.264-0.71-0.679-1.349-1.245-1.917v0c-0.831-0.834-1.671-1.459-2.522-1.877-0.85-0.417-1.725-0.608-2.623-0.572-0.894 0.041-1.816 0.323-2.768 0.847-0.947 0.528-1.936 1.307-2.968 2.335z" fill="#000000" data-fill-palette-color="accent"></path><path d="M60.968 227.089v0c0.199-0.386 0.446-0.785 0.742-1.197v0c0.244-0.356 0.548-0.748 0.911-1.178 0.361-0.438 0.785-0.866 1.273-1.285v0c0.584 0.662 1.219 1.306 1.905 1.931v0c0.586 0.528 1.235 1.077 1.948 1.648 0.717 0.565 1.464 1.049 2.243 1.45v0c0.695 0.359 1.355 0.669 1.98 0.931 0.619 0.259 1.206 0.389 1.763 0.39 0.556 0.001 1.076-0.16 1.558-0.483 0.486-0.329 0.938-0.9 1.358-1.714v0c0.503-0.975 0.597-1.901 0.282-2.778-0.315-0.877-1.145-1.843-2.489-2.898v0c-1.392-1.094-2.487-2.159-3.285-3.195-0.794-1.042-1.35-2.058-1.666-3.049-0.314-0.997-0.407-1.974-0.282-2.933 0.129-0.964 0.432-1.91 0.91-2.837v0c0.72-1.397 1.555-2.467 2.503-3.212 0.957-0.748 2.017-1.205 3.18-1.373 1.168-0.165 2.459-0.056 3.872 0.326 1.407 0.379 2.93 0.992 4.571 1.838v0c1.147 0.592 2.122 1.196 2.924 1.814 0.806 0.611 1.461 1.164 1.967 1.657v0c0.585 0.573 1.059 1.133 1.424 1.682v0c-0.235 0.338-0.529 0.69-0.884 1.057v0c-0.306 0.301-0.673 0.635-1.103 1-0.429 0.365-0.926 0.708-1.488 1.027v0c-0.311-0.491-0.705-0.988-1.184-1.491v0c-0.404-0.442-0.919-0.91-1.544-1.406-0.622-0.501-1.381-0.983-2.278-1.446v0c-0.695-0.359-1.354-0.657-1.976-0.895-0.622-0.238-1.204-0.35-1.746-0.336-0.541 0.014-1.051 0.199-1.528 0.555-0.474 0.35-0.921 0.932-1.34 1.747v0c-0.205 0.398-0.339 0.788-0.401 1.17-0.059 0.376 0.004 0.781 0.187 1.214 0.192 0.43 0.524 0.91 0.996 1.439 0.472 0.529 1.14 1.152 2.004 1.868v0c1.356 1.121 2.434 2.158 3.236 3.114 0.793 0.958 1.334 1.899 1.624 2.824 0.29 0.925 0.352 1.863 0.185 2.815-0.167 0.952-0.542 1.992-1.125 3.122v0c-0.625 1.212-1.379 2.208-2.262 2.986-0.886 0.784-1.916 1.314-3.089 1.59-1.167 0.278-2.489 0.281-3.965 0.009-1.474-0.279-3.114-0.884-4.921-1.816v0c-1.159-0.598-2.174-1.226-3.045-1.886-0.865-0.657-1.593-1.273-2.184-1.849v0c-0.689-0.649-1.276-1.297-1.761-1.947z" fill="#000000" data-fill-palette-color="accent"></path><path d="M96.942 234.325l3.039-15.973-3.607-0.686c0.026-0.206 0.051-0.429 0.077-0.67v0c0.019-0.207 0.052-0.45 0.097-0.726 0.038-0.272 0.089-0.575 0.153-0.911v0c0.062-0.328 0.13-0.632 0.204-0.91 0.073-0.279 0.167-0.628 0.281-1.05v0l3.606 0.686 0.831-4.365 3.844-2.975 2.443 0.465-1.511 7.942 7.785 1.481c-0.002 0.19-0.014 0.416-0.037 0.677-0.017 0.269-0.048 0.522-0.094 0.759v0c-0.08 0.42-0.196 0.797-0.347 1.128-0.152 0.332-0.298 0.617-0.439 0.856v0c-0.161 0.276-0.34 0.517-0.536 0.725v0l-7.144-1.359-3.033 15.943c-0.255 1.34-0.217 2.355 0.115 3.044 0.338 0.691 1 1.13 1.986 1.317v0c0.427 0.081 0.883 0.117 1.368 0.107 0.486-0.016 0.954-0.057 1.401-0.121v0c0.511-0.073 1.032-0.164 1.564-0.274v0c0.277 0.55 0.476 1.074 0.599 1.574 0.124 0.493 0.197 0.933 0.219 1.318v0c0.032 0.442 0.019 0.848-0.038 1.218v0c-0.579 0.251-1.213 0.453-1.903 0.608v0c-0.617 0.128-1.338 0.215-2.163 0.262-0.825 0.041-1.749-0.037-2.774-0.232v0c-1.432-0.272-2.593-0.681-3.484-1.224-0.898-0.538-1.576-1.215-2.033-2.031-0.463-0.823-0.722-1.785-0.779-2.884-0.055-1.106 0.048-2.346 0.31-3.719z" fill="#000000" data-fill-palette-color="accent"></path><path d="M121.404 231.15v0c-0.26-2.676-0.161-5.01 0.297-7.002 0.465-1.994 1.222-3.67 2.273-5.028 1.05-1.358 2.359-2.409 3.926-3.153 1.567-0.744 3.326-1.21 5.275-1.4v0c1.804-0.175 3.444-0.029 4.92 0.439 1.477 0.468 2.76 1.2 3.852 2.195 1.092 1.002 1.971 2.24 2.639 3.714 0.667 1.474 1.09 3.129 1.269 4.966v0c0.061 0.632 0.092 1.221 0.091 1.765-0.001 0.538-0.02 1.006-0.055 1.406v0c-0.035 0.474-0.08 0.901-0.138 1.283v0l-18.278 1.686c0.181 1.655 0.491 3.009 0.929 4.062 0.438 1.052 1.018 1.863 1.738 2.431 0.72 0.568 1.595 0.927 2.624 1.075 1.03 0.155 2.23 0.166 3.601 0.033v0c1.171-0.114 2.216-0.289 3.134-0.526 0.91-0.243 1.682-0.496 2.314-0.759v0c0.717-0.298 1.36-0.623 1.931-0.974v0c0.336 0.619 0.611 1.2 0.825 1.744 0.214 0.544 0.377 1.015 0.49 1.413v0c0.12 0.479 0.218 0.899 0.294 1.262v0c-0.581 0.379-1.296 0.731-2.145 1.055v0c-0.725 0.279-1.619 0.557-2.68 0.835-1.061 0.285-2.297 0.495-3.708 0.632v0c-2.23 0.217-4.234 0.156-6.013-0.181-1.786-0.33-3.333-1.006-4.642-2.028-1.309-1.028-2.367-2.437-3.172-4.226-0.798-1.783-1.328-4.023-1.59-6.719zM127.17 227.949l12.749-1.239-0.092-0.949c-0.114-1.171-0.358-2.192-0.732-3.063-0.374-0.871-0.84-1.588-1.398-2.151-0.566-0.57-1.207-0.978-1.923-1.224-0.716-0.246-1.473-0.33-2.272-0.253v0c-1.171 0.114-2.188 0.367-3.05 0.76-0.862 0.393-1.564 0.948-2.105 1.666-0.535 0.717-0.902 1.609-1.101 2.677-0.192 1.067-0.217 2.326-0.076 3.776z" fill="#000000" data-fill-palette-color="accent"></path><path d="M155.789 225.582v0c-1.137-2.414-1.783-4.663-1.938-6.749-0.158-2.092 0.066-3.993 0.671-5.705 0.608-1.706 1.537-3.201 2.788-4.485 1.253-1.278 2.733-2.319 4.438-3.122v0c0.641-0.302 1.229-0.546 1.763-0.731 0.531-0.176 0.994-0.306 1.391-0.389v0c0.463-0.115 0.884-0.187 1.261-0.218v0l-4.917-10.434 5.39-2.54 15.199 32.256 3.447 1.525 0.752 1.597-5.063 2.386-2.692-1.171-0.862 0.406c-0.045 0.125-0.135 0.381-0.269 0.77-0.132 0.395-0.373 0.848-0.722 1.361-0.341 0.516-0.807 1.057-1.398 1.623-0.591 0.567-1.358 1.072-2.301 1.517v0c-1.252 0.59-2.639 0.933-4.161 1.029-1.522 0.096-3.049-0.141-4.582-0.712-1.542-0.574-3.026-1.52-4.453-2.837-1.429-1.323-2.676-3.115-3.742-5.377zM161.46 222.91v0c0.741 1.573 1.54 2.837 2.397 3.793 0.851 0.959 1.752 1.655 2.702 2.087 0.941 0.429 1.929 0.603 2.963 0.522 1.031-0.087 2.097-0.389 3.198-0.908v0c0.417-0.197 0.834-0.474 1.248-0.832 0.409-0.355 0.763-0.718 1.062-1.088v0c0.365-0.401 0.706-0.839 1.022-1.314v0l-8.067-17.121c-0.287-0.028-0.676-0.007-1.169 0.062-0.495 0.063-1.121 0.273-1.876 0.629v0c-2.649 1.248-4.285 3.087-4.907 5.517-0.622 2.429-0.146 5.314 1.427 8.653z" fill="#000000" data-fill-palette-color="accent"></path><path d="M215.051 199.867l-29.648-23.778 3.954-4.929 29.648 23.778z" fill="#000000" data-fill-palette-color="accent"></path><path d="M230.057 173.264l-30.851-12.535c-0.507 1.302-0.968 2.48-1.381 3.532-0.407 1.055-0.743 1.961-1.008 2.719v0c-0.319 0.874-0.597 1.656-0.834 2.347v0c-0.226-0.048-0.445-0.105-0.656-0.17v0c-0.386-0.099-0.845-0.257-1.378-0.473v0c-0.31-0.126-0.679-0.301-1.107-0.526-0.422-0.222-0.884-0.507-1.385-0.855v0l9.374-23.073c0.181 0.052 0.37 0.111 0.567 0.176v0c0.162 0.044 0.347 0.097 0.553 0.159 0.206 0.062 0.405 0.132 0.597 0.21v0c0.341 0.138 0.777 0.352 1.309 0.641 0.526 0.286 0.999 0.605 1.42 0.955v0c-0.074 0.129-0.242 0.479-0.503 1.052-0.259 0.566-0.562 1.251-0.911 2.055-0.348 0.804-0.722 1.681-1.122 2.63-0.404 0.94-0.788 1.86-1.153 2.758v0l30.852 12.534z" fill="#000000" data-fill-palette-color="accent"></path><path d="M2.325 124.904c0-8.018 6.5-14.518 14.518-14.518 8.018 0 14.518 6.5 14.517 14.518 0 8.018-6.5 14.518-14.517 14.518-8.018 0-14.518-6.5-14.518-14.518z" fill="#000000" data-fill-palette-color="accent"></path><path d="M211.658 124.904c0-8.018 6.5-14.518 14.518-14.518 8.018 0 14.518 6.5 14.518 14.518 0 8.018-6.5 14.518-14.518 14.518-8.018 0-14.518-6.5-14.518-14.518z" fill="#000000" data-fill-palette-color="accent"></path></g><g id="text-1"></g></svg></g></svg></g></svg></g><defs></defs></svg><rect width="395.52" height="141.72597384633238" fill="none" stroke="none" visibility="hidden"></rect></g></svg></g></svg>